<svg version="1.1" xmlns="http://www.w3.org/2000/svg" viewBox="0 0 608.631011972539 423.06438802084205" width="1217.262023945078" height="846.1287760416841">
  <defs>
    <style>
      @font-face {
        font-family: "Virgil";
        src: url("https://excalidraw.com/Virgil.woff2");
      }
      @font-face {
        font-family: "Cascadia";
        src: url("https://excalidraw.com/Cascadia.woff2");
      }
    </style>
  </defs>
  <rect x="0" y="0" width="608.631011972539" height="423.06438802084205" fill="#ffffff"></rect><g stroke-linecap="round"><g transform="translate(124.63101197253906 10.344048913173197) rotate(0 -0.31338399004340545 190.1815842768267)"><path d="M0.75 0.68 C0.89 64, -0.22 316.02, -0.28 378.93 M-0.32 0 C-0.26 63.58, -1.4 317.21, -1.38 380.37" stroke="#000000" stroke-width="1" fill="none"></path></g></g><g stroke-linecap="round"><g transform="translate(192.83294041238565 10.343030304554816) rotate(0 -0.625555705923091 190.27074570189197)"><path d="M0 0.46 C-0.08 63.78, 0.32 316.02, 0.24 379.27 M-1.46 -0.34 C-1.74 63.25, -0.57 317.81, -0.58 380.88" stroke="#000000" stroke-width="1" fill="none"></path></g></g><g stroke-linecap="round"><g transform="translate(260.03586118464654 11.344889169629823) rotate(0 0.010298452377298872 189.8995287549213)"><path d="M0.73 0.21 C0.43 63.56, -0.76 315.89, -1.07 379.03 M-0.34 -0.72 C-0.34 62.91, 0.83 317.01, 1.09 380.52" stroke="#000000" stroke-width="1" fill="none"></path></g></g><g stroke-linecap="round"><g transform="translate(324.7271427579163 11.846244625711222) rotate(0 -0.23451893105169574 189.77522168640016)"><path d="M0.3 -0.77 C0.58 62.25, 0.51 315.7, 0.53 378.9 M-1 1.44 C-0.74 64.57, -0.28 317.32, -0.14 380.32" stroke="#000000" stroke-width="1" fill="none"></path></g></g><g stroke-linecap="round"><g transform="translate(392.9320640540064 11.847824191630082) rotate(0 -0.1342231734842585 189.63840558667636)"><path d="M-0.77 0.53 C-0.94 63.73, -0.25 316.48, -0.23 379.52 M1.03 -0.24 C0.61 62.56, -0.83 314.24, -1.3 377.6" stroke="#000000" stroke-width="1" fill="none"></path></g></g><g stroke-linecap="round"><g transform="translate(460.13101197253917 12.847362620771435) rotate(0 -0.0715133305444624 189.12511827717506)"><path d="M0.53 -0.23 C0.54 62.98, 0.54 315.22, 0.39 378.46 M-0.65 -1.39 C-0.79 62.02, -0.25 315.99, -0.36 379.65" stroke="#000000" stroke-width="1" fill="none"></path></g></g><g stroke-linecap="round" transform="translate(125.63101197253906 59.343030304554816) rotate(0 67 21.5)"><path d="M0 0 C0 0, 0 0, 0 0 M0 0 C0 0, 0 0, 0 0 M0.02 5.96 C1.07 4.37, 4.09 2.55, 5.64 0.25 M-0.66 6.32 C1.37 4.5, 3.3 2.36, 5.12 0.34 M-0.98 12.17 C2.91 7.85, 8.11 3.21, 10.97 1.17 M0.09 12.53 C4.33 7.36, 9.25 2.98, 10.96 -0.82 M-0.04 18.92 C2.67 16.44, 7.04 10.52, 14.19 0 M-0.17 19.32 C3.29 14.14, 8.13 9.34, 16.51 -0.15 M0.45 23.82 C10.42 15.35, 17.05 4.47, 21.09 -1.5 M-0.41 23.51 C5.25 19.32, 8.45 12.9, 21.44 0.78 M1.5 29.17 C7.19 22.35, 17.7 11.45, 27.44 1.08 M0.89 30.02 C8.66 20.7, 17.81 11.04, 27.12 -0.05 M0.06 36.75 C9.69 21.74, 24.55 10.15, 32.95 1.87 M-0.78 36.94 C9.59 24.61, 19.66 12.13, 32.08 -0.05 M-0.95 40.86 C14.76 27.6, 29.91 11.08, 38.32 -0.11 M0.4 42 C13.46 26.92, 26.37 12.72, 36.25 0.84 M2.75 43.67 C18.63 26.03, 34.94 8.02, 42.68 -0.2 M3.35 44.17 C13.86 33.41, 24.22 20.35, 42.61 0.27 M9.16 46.52 C16.15 35.49, 26.75 25.49, 48.52 -1.23 M8.56 46.29 C16.33 34.68, 27.06 23.38, 47.37 0.58 M14.09 44.51 C25.51 35.53, 35.7 22.93, 55.09 -0.74 M13.43 45.84 C24.44 33.2, 35.96 19.07, 53.58 -1.13 M20.01 44.53 C30.4 34.3, 39.46 19.12, 59.42 -0.15 M19.36 46.36 C29.76 34.03, 38.22 21.67, 57.35 0.1 M24.23 47.83 C32.07 34.26, 39.31 25.45, 65.67 0.03 M23.13 46.23 C39.23 28.67, 52.96 10.69, 63.44 -0.78 M29.1 47.07 C44.42 30.72, 58.06 15.91, 70.14 -0.96 M29.31 45.04 C39.2 36.63, 47.95 25.9, 69.45 0.2 M34.23 45.41 C46.34 31.25, 58.25 19.15, 74.66 0.65 M33.72 44.94 C44.44 34.02, 55.63 21.43, 73.49 0.18 M41.28 46.05 C50.05 33.63, 58.98 24.42, 79.52 0.03 M40.42 45.48 C46.86 36.66, 54.97 27.77, 80.32 0.53 M46.89 47.07 C56.29 35.89, 65.94 24.8, 84.98 0.46 M45.87 46.7 C54.32 35.72, 61.93 26.68, 84.98 -1.05 M52.12 46.19 C65.46 31.74, 79.23 15.59, 88.11 0.28 M50.59 45.21 C65.16 28.19, 81.04 11.26, 91 0.59 M55.38 47.65 C63.58 37.69, 73.87 28.56, 96.31 1.57 M55.31 45.32 C63.45 36.77, 72.84 27.54, 96.01 0.1 M61.9 46.96 C73.07 33.22, 83.06 21.33, 100.18 1.06 M60.63 45.09 C70.56 35.07, 77.4 25.17, 99.92 0.76 M64.61 45.78 C80.62 27.89, 96.84 9.25, 107.02 -1.13 M67.17 45.48 C74.61 36.03, 84.54 26.08, 106.57 0.56 M73.63 44.65 C85.12 29.83, 98.68 14.61, 109.72 1.39 M71.23 44.37 C82.18 34.98, 90.14 23.23, 111.9 -0.73 M77.18 45.87 C91.5 27.99, 105.68 11.31, 115.56 -1.21 M76.95 45.73 C88.55 33.24, 99.92 20.05, 116.92 1.35 M83.03 46.29 C96.13 27.71, 111.49 11.26, 122.43 0.1 M81.96 45.65 C92.82 32.92, 104.48 21.58, 121.16 -0.79 M87.43 44.12 C97.71 33.84, 105.91 21.16, 125.05 2.28 M87.54 45.47 C97.76 35.31, 105.1 24.04, 127.13 -0.38 M92.54 43.72 C101.95 34.19, 114.69 20.91, 133.75 1.77 M92.29 45.87 C102.94 33.1, 112.13 23.89, 132.29 -0.49 M99.41 46.48 C109.4 32.1, 122.93 15.91, 136.08 0.83 M98.25 45.96 C112.56 28.06, 127.75 11.12, 136.92 1.63 M105.34 43.55 C116.1 30.35, 126.71 17.27, 135.6 7.08 M104.59 45.36 C115.23 33.15, 125.47 21.86, 136.08 8.3 M108.89 46.71 C117.38 32.49, 129.13 20.77, 138.01 13.52 M109.75 45.32 C116.02 37.53, 122.92 28.85, 135.97 14.8 M115.29 45.17 C118.85 38.82, 126.57 33.8, 136.79 21.67 M115.1 44.79 C119.12 38.86, 124.04 32.8, 136.84 20.71 M121.36 44.36 C123.97 37.79, 132.63 31.55, 138 26.59 M119.11 45.53 C122.92 40.73, 127.77 37.57, 135.93 26.28 M125.01 46.51 C129.23 39.46, 132.09 36.45, 137.03 31.8 M124.99 44.33 C129.57 40.63, 133.19 37.41, 135.72 31.62 M130.05 46.04 C131.65 44.2, 133.77 41.65, 136.03 38.55 M130.39 45.46 C131.5 44.19, 133.04 42.33, 136.2 38.79" stroke="#fa5252" stroke-width="0.5" fill="none"></path><path d="M-0.88 -1.86 C42.71 1.29, 82.04 -0.14, 135.19 -1.94 M-0.35 0.71 C27.84 -1.31, 56.08 -1.49, 134.28 -0.51 M135.74 -1.62 C135.65 15.94, 132.2 32.23, 135.53 44.93 M134.68 -0.79 C134.04 11.32, 133.35 23.27, 133.12 43.93 M135.36 42.85 C102.83 45.13, 70.88 43.96, -1.63 42.5 M134.41 42.63 C98.32 42.75, 60.66 42.9, -0.61 42.2 M-1.9 42.95 C0.92 35.7, 1.04 26.79, -1.88 0.14 M0.47 42.9 C-0.7 27.97, 0 12.4, -0.49 -0.42" stroke="#000000" stroke-width="1" fill="none"></path></g><g stroke-linecap="round" transform="translate(261.63101197253906 101.34303030455482) rotate(0 32 22)"><path d="M0 0 C0 0, 0 0, 0 0 M0 0 C0 0, 0 0, 0 0 M0.21 6.71 C1.81 3.99, 4.14 2.64, 4.62 0.53 M0.09 6.26 C1.53 4.68, 2.84 2.79, 4.96 0.03 M0.98 13.62 C2.68 10.22, 5.17 5.98, 10.72 -0.6 M0.29 12.08 C3.88 8.34, 6.04 4.91, 9.97 -0.01 M1.32 18.07 C6.86 13.38, 9.78 5.17, 14.57 1.6 M-0.76 19.02 C4.02 15.51, 6.76 10.62, 14.88 0.54 M0.43 24.02 C4.5 18.15, 9.48 13.1, 19.32 0.03 M0.36 24.49 C6.51 15.43, 14.5 8.73, 21.77 -0.68 M1.01 29.03 C6.98 22.54, 15.97 12.2, 27.81 -1.39 M-0.13 30.84 C6.97 21.23, 15.2 13.33, 25.95 1.04 M1.68 36.31 C11.69 24.04, 23.55 6.89, 33.35 -0.02 M0.18 35.91 C10.73 23.08, 22.31 11.59, 31.42 -0.01 M1.42 42.18 C13.29 26.83, 28.99 12.34, 38.66 2.22 M-0.65 42.44 C11.33 28.27, 25.18 15.51, 37.88 0.21 M4.39 46.14 C12.35 38.52, 20.74 26.17, 43.32 1.63 M2.16 45.33 C16.72 29.62, 29.55 14.5, 43.34 0.49 M8.86 45.15 C18.78 29.3, 31.59 15.51, 46.71 1.58 M8.17 46.31 C22.65 28.85, 37.92 10.21, 47.31 0.57 M13.38 46.76 C21.05 34.66, 32.61 23.62, 51.45 -0.71 M12.21 46.29 C24.9 31.81, 37.84 17.52, 53.48 0.15 M18.24 46.13 C26.2 36.48, 37.72 23.79, 58.3 -1.33 M19.04 46.64 C31.52 31, 45.04 15.54, 58.79 1.03 M23.7 46.57 C36.15 26.83, 52.93 13.6, 65.66 1.08 M23.7 45.06 C34.15 33.57, 43.09 23.75, 64.19 0.17 M26.83 46.39 C45.35 28.44, 56.72 11.34, 66.48 0.47 M29.72 46.7 C40.2 31.08, 52.44 17.67, 67.76 2.1 M35.03 47.68 C43.64 32.43, 55.74 18.68, 65.72 7.91 M34.73 46.21 C44.4 34.23, 55.78 21.51, 67.35 9.67 M38.9 47.17 C45.84 36.56, 56.37 25.57, 66.45 16.07 M38.64 46.87 C47.52 37.4, 53.73 29.11, 66.98 13.93 M45.74 44.98 C49.22 37.23, 55.54 34.13, 66.25 19.41 M45.29 46.66 C51.76 37.51, 58.44 31.76, 66.35 20.52 M48.44 47.5 C54.27 39.7, 61.26 32.31, 65.22 27.93 M50.62 45.38 C57.1 39, 62.9 31.77, 67.17 26.7 M55.04 44.38 C57.93 42.35, 61.07 39.76, 66.93 33.84 M56.2 46.55 C59.69 41.52, 62.92 37.65, 67.24 32.54 M60.87 46.14 C61.86 43.85, 62.71 42.15, 66.89 38.67 M60.3 45.74 C61.93 44.57, 63.98 42.56, 66.2 39.38" stroke="#7950f2" stroke-width="0.5" fill="none"></path><path d="M1.48 -0.63 C14.03 0.55, 25.98 1.78, 63.91 1.27 M-0.9 -0.85 C19.65 -0.76, 37.55 -0.06, 63.45 -0.87 M65.63 -0.29 C64.53 13.74, 62.36 27.49, 63.59 43.64 M64.34 -0.06 C64.4 13.15, 64.32 25.17, 64.08 43.66 M64.42 45.51 C47.95 41.81, 29.16 43.44, 1.23 43.96 M64.41 43.01 C43.09 44.33, 24.06 44.4, 0.24 43.73 M-1.43 43.67 C-0.55 27.17, -0.68 9.34, 1.77 -1.85 M0.89 43.52 C1.2 27.11, -0.03 11.58, -0.13 0.81" stroke="#000000" stroke-width="1" fill="none"></path></g><g stroke-linecap="round" transform="translate(126.63101197253906 202.34303030455482) rotate(0 34.5 23.5)"><path d="M0 0 C0 0, 0 0, 0 0 M0 0 C0 0, 0 0, 0 0 M-0.05 5.98 C2.06 3.58, 3.79 2.11, 4.48 0.83 M-0.34 6.1 C1.83 3.77, 4.06 1.35, 5.02 0.35 M0.45 10.49 C3.06 9.32, 5.52 4.66, 10.78 0.62 M0.54 12.45 C2.11 9.41, 5.16 6.77, 11.03 -0.62 M0.71 20 C1.8 13.94, 8.21 8.63, 15.34 1.04 M0.02 18.14 C4.71 14.79, 8.82 9.64, 16.59 0.04 M-0.45 25.54 C6.01 18.52, 12.86 8.89, 22.13 -1.99 M0.89 23.61 C6.46 18.08, 11.36 10.06, 21.9 -0.24 M1.18 32.26 C8.64 23.19, 12.24 13.77, 24.67 0.12 M0.24 31.48 C5.47 23.19, 10.34 17.34, 27.19 0.41 M-1.52 37.68 C13.22 23.58, 22.77 8.24, 31.2 -1.25 M-0.41 37.69 C11.61 24.68, 22.69 12.38, 32.58 -0.66 M-0.05 41.73 C10 35.26, 18.17 24.54, 38.24 0.36 M0.06 42.33 C10.82 29.77, 21.59 18.18, 37 0.7 M-0.16 45.7 C11.3 35.42, 23.91 21.51, 40.69 0.7 M1.81 47.73 C11.35 35.6, 21.04 24.98, 42.58 -0.18 M6.94 47.93 C12.62 38.97, 21.23 29.97, 49.35 1.04 M7.11 48.42 C16.92 36.88, 27.03 25.25, 47.48 0.59 M12.86 50 C21.53 37.1, 28.92 28.02, 53.03 -1.72 M11.89 48.54 C26.52 32.53, 41.14 15.56, 52.19 -0.07 M16.66 47.41 C31.1 29.89, 48.23 12.87, 60.08 1.21 M16.67 48.7 C25.34 38.85, 34.87 29.24, 58.46 1.13 M21.12 47.27 C29.55 38.99, 40.49 29.53, 64.46 0.62 M22.09 48.91 C33.39 35.14, 44.3 22.39, 63.54 0.3 M26.11 47.22 C37.93 36.53, 43.55 26, 67.29 1.58 M26.6 47.74 C42.8 29.6, 58.94 11.06, 69.13 -0.24 M34.2 47.64 C39.88 38.54, 51 28.71, 72.33 4.58 M33.27 47.74 C45.95 32.44, 59.48 17.07, 71 3.47 M36.67 45.82 C47.77 39.51, 52.91 28.4, 73.41 6.94 M38.2 47.77 C50.57 32.8, 62.88 18.46, 71.82 7.63 M43.12 48.18 C52.29 39.22, 61.12 28.85, 73.2 16.77 M43.29 48.54 C53.2 35.38, 64.23 23.3, 72.18 14.88 M47.5 48.4 C53.7 39.81, 61.88 34.52, 70.14 19.67 M48.64 46.88 C54.6 40.75, 59.54 33.45, 70.73 22.18 M53.68 47.69 C59.96 43.37, 60.76 36.8, 72.5 25.41 M53.36 47.24 C57.72 42.86, 63.76 36.6, 72.65 27.77 M57.63 48.82 C63.21 42.23, 65.53 42.17, 71.31 32.43 M59.91 48.02 C62.74 43.38, 67.27 37.87, 71.72 32.79 M64.41 48.41 C67.36 43.41, 70.99 39.87, 73.02 38.67 M64.77 47.46 C67.34 44.26, 69.85 41.1, 72.08 38.56" stroke="#e64980" stroke-width="0.5" fill="none"></path><path d="M-0.11 1.23 C26.99 -0.06, 56.02 0.79, 69.82 -1.97 M0.04 0.24 C14.34 0.85, 29.47 -0.19, 68.29 -0.16 M68.91 1.77 C67.26 14.46, 68.19 27.99, 70.79 46.04 M69.09 -0.13 C69.51 19.23, 68.63 37.42, 68.92 46.28 M67.64 45.86 C55.25 48.29, 38.11 45.7, 0.36 48.69 M69.75 46.35 C46.1 47.1, 24.82 46.53, 0.6 47.39 M1.78 46.08 C0.52 32.07, 2.08 17.02, 1.75 -0.67 M0.16 46.94 C-0.97 29.03, 0.6 12.84, 0.53 0.99" stroke="#000000" stroke-width="1" fill="none"></path></g><g stroke-linecap="round" transform="translate(261.63101197253906 146.34303030455482) rotate(0 99.5 22)"><path d="M0 0 C0 0, 0 0, 0 0 M0 0 C0 0, 0 0, 0 0 M-0.35 6.79 C1.01 4.27, 3.57 1.93, 4.45 0.49 M0.12 6.75 C1.55 4.84, 2.95 2.47, 5.36 0.12 M1 12.88 C1.4 9.54, 4.05 5.32, 9.05 -0.05 M0.72 11.35 C3.56 8.17, 7.65 2.92, 10.58 0.39 M0.37 17.35 C4.1 10.21, 10.85 3.31, 14.13 2.17 M-1.09 17.97 C4.06 13.53, 10 7.46, 16.47 1.18 M1.08 23.36 C4.46 17.48, 8.98 13.27, 19.82 -0.87 M0.56 24.81 C6.67 17.75, 11.48 9.41, 20.48 -1.02 M1.8 31.83 C8.23 22.89, 15.48 12.52, 27.49 -0.59 M-0.72 31.02 C7.59 21.69, 15.85 12.28, 25.85 1.05 M0.1 38.48 C6.02 26.53, 15.86 18.58, 32.44 -0.83 M-0.75 36.92 C11.63 23.43, 22.88 9, 32.85 -0.31 M0.94 41.18 C14.03 30.35, 25.78 13.17, 38.35 -0.97 M0.79 43.22 C15.13 25.55, 29.15 8, 35.94 0.4 M1.46 45.94 C17.28 27.81, 31.32 11.15, 40.78 -1.17 M3.43 46.33 C17.94 27.63, 32.25 12.34, 42.39 -1.02 M7.89 45.27 C21.27 35.12, 32 17.82, 46.06 -1.53 M8.03 46.96 C19.24 33.51, 30.93 19.06, 47.49 -0.36 M13.73 47.24 C25.07 34.47, 35.45 20.84, 54.77 0.69 M13.16 46.49 C26.06 30.08, 39.69 14.27, 53.17 0.06 M17.28 44.55 C26.45 33.67, 38.36 25.91, 56.68 -0.08 M17.85 46.29 C25.82 36.84, 35.02 25.67, 57.17 -0.46 M23.73 47.04 C39.29 28.77, 56.77 11.18, 62.12 1.08 M23.91 45.53 C39.62 27.45, 55.42 9.92, 63.68 0.02 M30.14 44.53 C38.14 36.53, 46.12 25.94, 69 0.39 M28.13 46.35 C40.48 31.33, 52.98 17.06, 68.53 0.23 M34.87 47.68 C45.87 32.89, 60.59 18.93, 74.2 0.15 M33.91 45.89 C46.65 31.32, 60.11 15.88, 73.79 -1.23 M38.5 46.71 C49.82 33.86, 56.88 23.43, 80.52 1.63 M39.43 45.41 C51 31.61, 64.24 18.29, 79 0.2 M45.28 44.31 C55.64 32, 67.66 16.84, 84.13 -0.21 M45.29 46.37 C55.49 34.33, 67.72 20.82, 85.75 0.11 M48.08 46.37 C59.82 35.72, 65.7 27.31, 89.48 0.19 M50.68 45.55 C64.28 29.75, 78.26 14.04, 90.91 -0.72 M53.81 46.86 C65.88 32.92, 79.74 18.91, 96.75 -2.3 M55.06 45.13 C70.93 28.17, 85.57 11.34, 95.22 -1.3 M60.35 46.58 C77.24 28.7, 90.95 12.71, 100.81 1.41 M60.24 45.76 C72.34 33.28, 84.56 17.97, 100.48 -0.3 M66.02 46.02 C80.55 26.67, 99.86 7.97, 106.61 1.35 M66.13 46.68 C80.24 30.42, 94.37 13.75, 106.22 -0.96 M70.49 44.18 C85.27 30.95, 101.64 13.48, 112.17 1.39 M70.83 46.84 C87.22 28.8, 103.63 8.96, 110.83 1.01 M75.56 48.06 C88.5 33.1, 98.46 23.24, 115.33 -1.26 M75.65 45.67 C88.13 33.26, 99.28 19.42, 115.55 1.26 M81.39 47.8 C95.7 31.12, 103.95 18.41, 119.95 1.04 M82.56 46.48 C93.47 32.37, 105.38 18.13, 120.95 -0.86 M88.73 45.71 C103.26 30.36, 117.27 11.28, 128.2 1.41 M86.61 46.81 C98.86 32.08, 111.89 18.36, 126.33 1.07 M93.67 47.84 C101.48 34.58, 113.81 20.56, 133.25 0.02 M91.95 46.23 C106.26 29.1, 121.3 12.55, 132.74 -0.63 M98.61 44.79 C114.8 28.55, 128.99 8.59, 136.28 -1.09 M96.94 46.47 C109.16 33.97, 119.21 22.36, 137.12 -0.67 M103.66 46.51 C110.93 36.06, 123.05 22.42, 143.88 -1.22 M102.89 46.48 C115.29 30.79, 128.35 16.76, 143.98 -0.66 M109.63 47.13 C123.58 28.03, 135.38 13.32, 148.99 1.85 M109.11 46.58 C116.72 36.36, 126.15 25.76, 147.52 -0.02 M113.41 47.76 C123.72 32.58, 135.42 24.3, 152.37 0.58 M113.67 45.5 C127.17 28.28, 143.34 12.46, 153.34 0.07 M118.96 45.33 C133.39 30.76, 144.1 14.45, 159.49 0.6 M118.48 46.48 C127.52 34.91, 138.86 24.01, 158.53 -0.18 M124.7 47.36 C137 30.92, 152.73 15.16, 165.99 1.42 M123.99 46.4 C137.84 30.68, 149.31 15.21, 165.38 -1.1 M130.48 44.8 C140.92 32.95, 154.26 17, 170.64 -0.68 M130.3 45.84 C143.1 29.98, 157.97 14.67, 169.52 -0.47 M137.01 46.83 C150.05 29.38, 163.45 12.19, 176.71 0.1 M135.9 46.16 C146.11 32.97, 159.16 19.72, 175.57 0.56 M140.79 45.7 C153.26 28.44, 165.95 12.8, 181.01 1.95 M140.72 45.68 C154.17 28.97, 170.24 12.42, 179.28 0.62 M145.55 47.49 C157.8 32.78, 168.29 17.99, 187.22 0.21 M144.87 46.63 C159.21 30.37, 173.12 16.16, 185.24 0.14 M149.2 44.99 C157.17 38.5, 165.46 28.16, 190.92 -1.78 M149.75 45.4 C162.12 31.95, 174.01 18.85, 190.97 0.49 M155.25 44.44 C166.21 34.28, 175.54 21.81, 196.94 0.1 M156.75 45.5 C166.19 35.99, 174.16 25.49, 196.63 0.06 M159.76 46.41 C172.71 30.63, 186.78 17.41, 199.72 2.37 M160.34 45.76 C174.22 29.9, 188.23 14.34, 200.48 0.13 M166.76 44.56 C176.12 35.08, 183.2 27.04, 201.42 6.47 M166.78 45.33 C176.74 35.3, 186.99 22.77, 201.3 6.69 M171.21 46.48 C179 37.61, 183.64 32.93, 199.32 13.02 M171.28 45.86 C179.06 36.34, 185.9 28.27, 200.93 12.98 M178.43 44.5 C186.59 38.43, 193.12 29.41, 202.16 18.22 M176.61 46.53 C185.34 34.88, 195.06 25.05, 200.91 19.16 M183.04 44.49 C189.84 39.58, 196.68 32.95, 198.33 24.4 M182.29 46.18 C187.83 40.44, 191.1 35.65, 199.81 25.15 M187.71 45.45 C188.92 43.95, 191.66 41.45, 200.64 29.53 M186.6 47.14 C190.78 40.87, 195.31 37.01, 200.28 31.45 M193.32 45.21 C195.18 43.99, 195.32 42.84, 199.78 37.94 M193.07 45.77 C195.11 43.71, 195.97 41.86, 200.83 38.01" stroke="#be4bdb" stroke-width="0.5" fill="none"></path><path d="M0.95 -1.6 C44.5 -0.53, 93.98 -0.44, 199.63 -1.73 M0.7 0.41 C74.68 1.79, 149.51 1.39, 198.8 0.68 M199.08 1.98 C198.83 18.87, 198.12 35.52, 199.6 43.86 M198.16 0.74 C199.07 14.44, 199.96 28.04, 199.5 44.37 M198.61 42.67 C148.22 43.68, 100.48 45.11, -0.99 43.85 M199.77 44.44 C150.94 44.79, 101.17 44.63, 0.95 43.05 M-1.79 44.93 C0.14 28.39, 1.4 17.13, 1.75 0.69 M-0.61 44.66 C-0.41 31.78, 0.29 19.08, -0.16 -0.33" stroke="#000000" stroke-width="1" fill="none"></path></g><g stroke-linecap="round" transform="translate(195.63101197253906 247.34303030455482) rotate(0 100 25)"><path d="M0 0 C0 0, 0 0, 0 0 M0 0 C0 0, 0 0, 0 0 M0.51 6.23 C1.65 4.66, 2.35 3.07, 4.45 0.96 M0.03 6.15 C2.15 4.32, 4.17 1.95, 5.27 0.68 M-1.37 12.27 C4.56 10.05, 7.35 4.14, 10.66 -0.19 M-0.56 11.63 C3.9 8.77, 6.7 5.64, 10.98 0.53 M-0.39 16.67 C2.92 14.28, 4.34 11.3, 14.62 2.32 M-0.85 17.56 C5.9 12.35, 11.96 4.74, 16.32 1.05 M0.23 22.91 C6.33 15.45, 13.06 8.85, 22.64 1.03 M1.08 24.51 C7.47 16.91, 15.03 8.07, 21.89 0.02 M0.05 30.95 C5.77 21.89, 15.95 13.19, 24.58 -0.84 M-0.73 30.35 C4.89 23.5, 11.13 16.36, 26.31 -0.64 M-2.19 35.58 C12.46 24.31, 20.04 12.28, 33.1 -0.23 M-1.09 37.52 C10.79 24.31, 20.12 12.68, 31.59 0.2 M-0.05 42.97 C6.59 31.53, 17.55 25.41, 35.22 0.01 M0.25 42.64 C13.86 27.13, 27.21 11.12, 37.04 -0.5 M-0.6 49.07 C11.6 36.2, 23.9 23.57, 44.4 -0.77 M-0.23 49.11 C15.17 31.29, 30.05 12.43, 42.61 -0.59 M1 50.32 C15.75 36.24, 30.3 17.63, 48.06 1.22 M2.8 53.05 C12.73 40.07, 23.11 29.2, 46.76 -0.28 M7.08 52.06 C16.77 41.12, 28.13 30.87, 51.7 -1.63 M7.43 51.94 C22.54 34.55, 36.71 18.78, 53.76 -0.77 M14.29 53.04 C26.91 35.06, 46 13.09, 58.39 1.87 M12.59 52.32 C26.14 38.24, 37.06 24.17, 57.57 0.18 M20.27 50.27 C32.17 36.99, 45.41 19.16, 64.91 -2.13 M19.05 50.87 C36.1 31.45, 52.24 12.43, 63.18 -0.35 M22.59 50.25 C38.11 37.74, 50.58 22.43, 69.26 1.73 M23.57 52.91 C37.62 36.19, 50.75 18.97, 68.44 -0.06 M28.79 51.14 C48.44 31.67, 64.28 11.96, 74.74 -1.87 M29.3 52.68 C40.92 38.5, 52.03 24.71, 75.4 0.03 M33.98 50.96 C50.23 34.28, 62.86 16.81, 77.52 -0.69 M34.57 52.88 C51.83 31.89, 67.22 12.51, 80.18 -0.07 M38.86 53.79 C55.96 32.63, 72.97 12.35, 86.69 1.25 M39.3 50.98 C50.6 39.57, 61.7 25.42, 84.3 0.13 M43.31 53.93 C60.44 32.08, 78.18 15.35, 91.81 1.84 M43.78 52.69 C56.07 40.36, 66.88 27.86, 90.49 -0.02 M48.47 50.08 C65.85 35.85, 77.59 21.83, 95 1.08 M51.05 52.3 C66.27 32.69, 81.38 14.98, 96.11 -0.9 M54.24 53.59 C64.95 41.79, 77.85 28.95, 102.52 -0.74 M55.74 52.16 C70.36 36.28, 84.28 17.99, 100.9 -0.19 M61.42 50.57 C73.89 39.67, 81.51 27.41, 104.75 1.16 M60.4 51.03 C74.73 35.68, 89.25 19.34, 106.42 0.48 M65.19 50.14 C78.41 37.79, 94.05 21.16, 111.85 -1.77 M66.37 51.53 C83.46 32.26, 101.25 11.67, 111.82 0.02 M72.6 51.31 C80.94 43.41, 89.34 33.38, 117.09 1.52 M71.42 53.24 C80.9 40.42, 91.75 29.72, 116.55 -0.04 M75.36 51.47 C90.46 36.99, 105.71 17.77, 123.77 0.13 M75.93 52.41 C86.62 40.68, 96.42 28.97, 121.5 -0.87 M80.69 52.79 C91.52 41.58, 101.93 30.36, 125.96 1.65 M81.98 52.6 C95.36 36.91, 109.51 20.32, 127.11 -0.65 M86.74 51.19 C101.02 38.4, 113.44 22.06, 134.03 -0.94 M88.06 52.81 C103.11 33.88, 118.4 14.86, 133.07 0.53 M94.15 50.49 C104.9 37.87, 115 26.52, 136.09 -1 M92.87 51.94 C108.32 34.78, 122.67 17.89, 137.13 0.12 M98.1 50.63 C110.23 39.44, 120.97 28.2, 144.16 -0.16 M98.73 52.13 C114.59 33.31, 131.15 15.03, 143.5 -0.51 M103.89 53.85 C119.58 33.98, 136.11 15.12, 147.66 0 M103.37 53.24 C113.39 41.28, 121.32 31.64, 147.64 -0.64 M106.99 52.85 C119.45 39.86, 131.63 26.44, 155.49 0.01 M109.3 52.17 C125.47 33.7, 140.33 13.83, 154.63 0.19 M112.6 53.04 C122.92 38.75, 136.73 23.34, 157.62 -1.21 M113.64 51.35 C130.96 31.84, 147.49 11.79, 158.02 -0.42 M119.73 52.63 C128.2 42.38, 136.69 28.95, 163.11 -0.19 M119.47 52.1 C131.92 36.16, 146.54 21.89, 164.16 0.69 M124.75 52.93 C139.99 33.41, 153.86 14.64, 169.7 -0.75 M123.69 53.04 C133.83 41.66, 143.83 29.72, 169.05 -0.35 M129.45 50.44 C141.2 38.6, 152.09 24.05, 173.89 0.23 M130.31 51.49 C141.8 38.06, 152.87 24.36, 174.66 -0.05 M136.6 51.12 C148.4 35.59, 165.94 16.42, 180.43 0.96 M134.38 51.93 C145.89 39.1, 158.38 25.47, 179.81 -0.15 M142.02 50.5 C151.4 41.48, 158.77 30.82, 184.49 0.95 M141.24 51.31 C158.64 31.49, 174.36 10.57, 186.52 -1.19 M146.17 51.93 C155.61 41.93, 162.95 31.85, 189.11 1.21 M144.45 51.56 C159.35 34.35, 173.88 17.51, 190.8 0.85 M150.14 50.73 C159.93 38.42, 174.31 27.68, 195.35 -1.61 M151.05 50.91 C166.58 35.12, 182.3 15.93, 197.04 -0.99 M155.28 52.41 C164.63 42.45, 176.49 29.13, 199.16 1.79 M155.48 52.36 C168.14 38.33, 180.56 23.27, 200.18 1.46 M163.25 52.79 C170.85 43.58, 178.78 34.58, 202.8 6.48 M160.87 51.04 C171.21 41.16, 178.51 31.51, 201.44 6.96 M167.53 52.29 C176 38.02, 191 26.97, 200.25 11.99 M166.92 52.64 C174.18 42.94, 180.63 35.48, 200.96 12.69 M173.58 52.03 C183.78 38.97, 194.41 26.33, 201.48 20.3 M173.22 50.82 C180.3 41.75, 188.16 34.12, 200.37 18.44 M178.3 52.07 C180.49 48.24, 185.91 42.35, 201.87 22.97 M177.09 51.6 C183.17 45.31, 187.42 40.35, 201.52 25.05 M181.51 52.3 C188.94 46.47, 195.18 35.82, 201.09 31.63 M182.29 51.53 C185.4 48.45, 189.1 44.06, 201.59 31.04 M188.75 50.92 C190.88 47.17, 196.68 41.29, 202.45 38.88 M188.14 52.34 C192.13 48.16, 197.05 41.52, 201.79 36.77 M192.45 52.7 C197.22 49.69, 198.48 45.26, 200.64 44.06 M193.34 52.53 C194.91 49.97, 195.88 48.71, 201.02 43.05" stroke="#fd7e14" stroke-width="0.5" fill="none"></path><path d="M1.67 -1.09 C78.77 1.66, 158.89 1.33, 200.94 -1.6 M-0.89 -0.01 C69.24 -0.05, 137.44 1.04, 199.22 -0.49 M199.89 1.05 C201.1 19.98, 201.88 36.91, 198.91 48.74 M199.26 0.92 C200.2 12.06, 199.91 21.16, 199.53 49.28 M201.54 51.55 C119.94 52.05, 43.72 52.07, -0.65 49.38 M199.35 49.64 C146.77 51.48, 94.38 51.01, 0.66 50.55 M-1.56 48.09 C0.09 30.77, 1.64 14.92, 1.35 0.48 M0.62 49.56 C-0.1 31.4, 0.32 12.45, 0.54 -0.14" stroke="#000000" stroke-width="1" fill="none"></path></g><g transform="translate(130.63101197253906 68.34303030455482) rotate(0 62 12.5)"><text x="0" y="18" font-family="Virgil, Segoe UI Emoji" font-size="20px" fill="#000000" text-anchor="start" style="white-space: pre;" direction="ltr">A </text></g><g transform="translate(131.63101197253906 213.34303030455482) rotate(0 29.5 12.5)"><text x="0" y="18" font-family="Virgil, Segoe UI Emoji" font-size="20px" fill="#000000" text-anchor="start" style="white-space: pre;" direction="ltr">B</text></g><g transform="translate(266.63101197253906 110.84303030455482) rotate(0 27 12.5)"><text x="0" y="18" font-family="Virgil, Segoe UI Emoji" font-size="20px" fill="#000000" text-anchor="start" style="white-space: pre;" direction="ltr">C</text></g><g transform="translate(266.63101197253906 155.84303030455482) rotate(0 94.5 12.5)"><text x="0" y="18" font-family="Virgil, Segoe UI Emoji" font-size="20px" fill="#000000" text-anchor="start" style="white-space: pre;" direction="ltr">D</text></g><g transform="translate(200.63101197253906 259.8430303045548) rotate(0 95 12.5)"><text x="0" y="18" font-family="Virgil, Segoe UI Emoji" font-size="20px" fill="#000000" text-anchor="start" style="white-space: pre;" direction="ltr">E</text></g><g stroke-linecap="round" transform="translate(13.631011972539056 10.343030304554816) rotate(0 56 24.5)"><path d="M0 0 C0 0, 0 0, 0 0 M0 0 C0 0, 0 0, 0 0 M-0.61 6.71 C1.11 4.57, 3.46 2.99, 4.28 0.9 M-0.46 6.74 C1.37 4.61, 2.32 3.62, 5.02 -0.01 M-0.17 13.29 C4.86 6.07, 8.95 2.04, 10.9 -0.98 M-0.32 12.28 C2.3 8.37, 5.81 6.4, 11.13 -0.15 M0.05 20.07 C4.99 13.9, 10.04 7.82, 13.71 -0.47 M-0.29 17.96 C3.94 13.13, 9.26 8.41, 15.83 0.2 M2.15 22.78 C7.42 18.21, 14.6 8.88, 20.61 -0.37 M0.98 23.51 C8.5 13.76, 17.61 4.37, 20.66 -0.46 M0.92 31.34 C6.42 25.43, 12.88 16.67, 25.02 -0.59 M0.35 29.66 C9.54 19.85, 19.61 7.43, 25.93 -0.06 M0.51 38.25 C10.8 21.29, 23.96 10.41, 31.88 -1.32 M-0.55 37.14 C6.12 29.27, 14 19.11, 32.8 -0.36 M-1.46 41.98 C12.09 27.36, 28.32 11.1, 36.68 1.58 M-0.02 42.11 C11.94 27.01, 26.37 13.15, 36.53 1.18 M0.33 48.09 C12.2 36.68, 22.35 20.7, 40.91 -0.68 M0.16 48.53 C14.24 33.08, 28.99 16.36, 43.18 0.43 M4.3 49.7 C21.33 31.33, 39.31 12.55, 46.96 -0.94 M3.39 50.92 C17.69 34.54, 32.95 18.72, 46.71 0.77 M7.69 50.4 C16.3 38.88, 26.96 28.08, 53.58 -1.31 M8.08 52.56 C21.17 34.67, 35.2 20.17, 53.68 0.08 M13.94 51.01 C29.31 33.17, 43.34 17.83, 58.81 -0.35 M14.4 50.53 C30.08 33.25, 45.66 16.2, 58.4 0.93 M16.95 52.4 C34.48 36.02, 47.55 16.45, 63.45 1.73 M18.6 51.81 C32.91 34.4, 47.93 18.57, 63.58 -0.39 M25.8 53.27 C40.19 32.41, 60.31 12.2, 69.95 -0.08 M25.1 51.34 C35.64 38.79, 47.98 25.47, 69.47 0.25 M27.79 51.05 C40.95 38.99, 50.64 26.08, 73.85 -0.82 M29.62 52.18 C43.91 34.76, 59.16 19.26, 74.54 -0.1 M35.81 52.59 C53.25 33.6, 68.87 13.53, 78.77 -0.75 M33.85 50.54 C51.13 32.6, 66.02 14.86, 78.64 0.66 M39.27 51.09 C51.64 38.86, 61.69 27.9, 83.78 1.52 M40.58 51.93 C51.72 37.85, 64.16 25.19, 85.62 0.7 M43.6 52.84 C62.66 33.5, 76.43 16.06, 90.4 1.78 M46.38 52.19 C60.94 34.85, 75.67 17.46, 90.53 0.46 M49.13 50.05 C63.87 39.65, 76.74 22.43, 93.99 1.05 M50.78 51.66 C61.29 39.6, 73.28 26.57, 96.26 -0.37 M54.54 51.67 C74.68 31.83, 91 12.55, 98.71 -1.58 M56.84 52.21 C72.48 32.29, 89 12.5, 100.68 -0.68 M59.84 52.22 C72.55 36.9, 83.15 25.02, 104.94 -2.17 M60.42 51.36 C71.75 40.88, 81.11 29.59, 105.3 -0.87 M65.73 50.53 C77.71 39.74, 85.88 26.17, 112.25 0.89 M66.75 51.37 C78.7 37.46, 90.66 22.75, 110.47 -0.75 M72.6 50.67 C84.34 38.2, 99.53 21.43, 116.18 0.72 M71.62 51.34 C82.93 38.26, 93.93 26.36, 113.35 2.55 M75.95 52.65 C87.25 40.31, 95.01 30.76, 113.09 7.97 M78.02 50.3 C87.83 39.45, 95.86 29.22, 115.01 7.93 M81.32 53.29 C91.58 39.41, 101.96 28.46, 116.35 13.39 M81.34 51.31 C92.08 41.07, 100.59 31.79, 113.78 15.11 M87.74 53.01 C95.82 42.56, 102.24 36.23, 113.18 18.41 M87.96 50.52 C98.89 39.56, 109.3 27.85, 114.4 20.56 M94.64 52.7 C95.64 44.76, 101.39 39.51, 112.94 26.2 M92.46 51.31 C99.03 43.47, 105.24 35.59, 115.46 26.8 M97.32 52.41 C102.62 44.83, 106.85 43.9, 115.87 31.23 M98.26 51.36 C104.16 44.74, 109.55 38.88, 114.36 33.24 M102.14 52.21 C105.03 49.05, 107.26 46.84, 113.51 38.39 M102.88 50.87 C106.95 48.89, 109.32 45.65, 114.78 39.41 M108.99 51.29 C110.57 48.31, 113.99 45.92, 114.23 44.6 M109.52 51.13 C111.12 49.16, 112.33 46.93, 114.73 45.46" stroke="#40c057" stroke-width="0.5" fill="none"></path><path d="M1.8 0.85 C38.68 0.98, 82.4 -0.96, 111.33 0.3 M0.69 -0.59 C30.13 1.1, 59.75 -0.04, 112.72 0.7 M110.52 1.24 C112.17 10.88, 112.21 21.5, 112.39 47.76 M111.21 -0.21 C111.39 15.57, 111.66 31.05, 112.55 49.24 M113.95 50.29 C67.66 50.11, 24.22 50.75, -0.83 48.04 M112.06 48.71 C76.76 48.3, 42.15 49.67, -0.7 48.56 M-1.55 48.11 C0.88 34.44, -0.36 15.36, 0.36 0.1 M0.97 48.3 C-0.15 38.05, 0.25 26.8, 0.98 0.13" stroke="#000000" stroke-width="1" fill="none"></path></g><g transform="translate(18.631011972539056 22.343030304554816) rotate(0 51 12.5)"><text x="51" y="18" font-family="Virgil, Segoe UI Emoji" font-size="20px" fill="#000000" text-anchor="middle" style="white-space: pre;" direction="ltr">Input</text></g><g stroke-linecap="round" transform="translate(462.63101197253906 298.3430303045548) rotate(0 68 20.5)"><path d="M0 0 C0 0, 0 0, 0 0 M0 0 C0 0, 0 0, 0 0 M-0.26 6.14 C1.22 5.26, 3.21 2.84, 5.56 -0.1 M-0.41 6.16 C1.15 4.22, 2.68 3.13, 5.17 0.53 M-0.8 11.06 C2.96 9.04, 6.98 4.84, 11.19 -1.35 M0.14 11.79 C2.4 9.66, 5.96 5.49, 10.94 0.51 M1.5 18.43 C2.78 12.38, 8.78 10.24, 15.03 0.84 M-1.06 19.35 C3.04 15.22, 7.76 9.62, 14.82 0.05 M1.5 23.89 C5.7 20.14, 8.4 14.47, 20.94 -0.89 M0.21 23.74 C5.66 18.68, 9.7 14.63, 21.49 -0.48 M-1.82 28.87 C8.87 20.33, 17.8 7.16, 26.82 -0.48 M0.87 31.14 C6.72 24.21, 12.13 16.21, 26.95 -0.63 M1.2 36.33 C9.34 24.79, 20.78 10.84, 32.87 -1.34 M0 36.08 C10.76 23.99, 21.23 13.05, 31.79 -0.85 M0.17 42.19 C8.5 32.29, 19.85 22.18, 37.27 1.58 M1.58 42.3 C10.78 31.5, 18.97 21.35, 37.09 0.01 M6.8 42.05 C18.21 28.51, 30.86 11.58, 44.26 -2.09 M6.95 41.64 C21.12 25.79, 34.66 8.87, 41.74 0.13 M11.18 41.41 C25.36 28.39, 34.91 14.18, 47.68 0.11 M12.36 41.53 C19.86 33.04, 28.63 21.5, 48.33 1.12 M17.04 43.27 C24.42 31.39, 31.34 20.86, 55.04 -0.44 M16.54 42.79 C25.71 30.81, 35.56 20.67, 52.48 -0.57 M22.67 41.14 C33.48 28.41, 44.16 13.87, 59.1 0.88 M22.84 41.83 C32.23 30.93, 41.5 19.35, 58.65 0.76 M27.74 41.43 C39.72 27.04, 55.63 9.28, 61.91 -2 M26.42 41.29 C42.46 24.62, 55.76 9.1, 63.53 -0.56 M32.72 40.4 C47.67 25.72, 58.51 10.5, 70.38 0.41 M32.86 42.24 C45.12 29.02, 55.28 16.27, 67.86 0.87 M38.44 42.4 C53.35 26.54, 64.85 10.97, 76.35 1.33 M38.07 42.53 C50.58 26.83, 62.91 11.4, 73.77 -1.1 M42.18 39.95 C56.85 25.89, 66.22 11.39, 80.15 -0.09 M43.6 42.22 C51.09 33.23, 59.24 23.73, 78.65 0.27 M49.17 40.04 C60.41 27.6, 76.48 9.26, 86.64 1.4 M48.49 42.01 C56.74 31.04, 66.07 21.7, 84.44 -0.03 M52.7 40.23 C63.76 27.13, 75.51 13.99, 88.81 -0.66 M54.61 40.6 C65.11 27.46, 77.46 14.45, 89.55 -0.32 M57.69 42.91 C71.87 27.74, 84.83 15.25, 95.82 -0.25 M58.53 41.14 C70.14 28.12, 82.55 13.14, 96.14 -0.82 M64.72 43.43 C71.47 30.14, 81.41 19.74, 100.56 -0.66 M64.81 40.6 C74.97 29.37, 85.46 17.84, 99.98 0.72 M69.59 40.31 C82.32 26.29, 95.82 13.09, 107.73 -2.34 M69.9 42.22 C83.79 25.87, 98.88 8.66, 105.82 0.47 M75.42 43.43 C83.4 30.41, 93.41 18.37, 109.38 -0.69 M75.45 40.86 C89.62 25, 103.48 10.67, 111.19 0.89 M80.19 40.23 C92.26 27.41, 106 8.01, 116.32 -1.12 M80.18 41.45 C92.67 26.9, 105.15 13.96, 117.13 0.91 M84.8 39.86 C92.9 33.47, 102.18 23.52, 121 -0.66 M85.18 42.37 C95.3 30.82, 103.71 21.1, 121.3 0.57 M92.64 43.41 C100.09 30.82, 111.29 15.52, 126.3 0.59 M91.79 41.89 C100.34 30.53, 110.13 20.2, 126.08 0.71 M97.63 40.05 C104.72 30.67, 115.14 19.75, 130.96 -1.75 M96.96 41.54 C110.65 26.55, 123.51 9.16, 132.29 0.06 M99.83 41.27 C108.07 33.37, 118.14 24.51, 138.52 0.74 M101.04 42.53 C114.31 27.92, 125.26 13.32, 137.37 1.47 M105.46 41.04 C116.65 30.33, 126.08 20.72, 136.69 6.37 M107.16 41.16 C118.23 29.28, 129.46 15.98, 137.09 7.31 M110.47 42 C123.21 30.26, 130.06 17.63, 138.76 14.04 M113.07 41.22 C121.72 32.42, 128.54 21.19, 136.21 13.26 M116.61 39.62 C124.48 36.45, 128.63 30.13, 135.91 21.2 M118.48 41.4 C121.8 35.88, 127.81 29, 137.06 18.63 M123.01 40.45 C127.35 38.72, 130.93 32.7, 138.6 27.04 M122.89 41.71 C127.53 36.89, 133.59 30.79, 136.21 24.65 M129.55 41.95 C129.99 39.18, 133.52 36.23, 135.94 31.14 M128.76 41.02 C130.47 38.62, 133.15 35.63, 137.39 31.31 M132.85 41.27 C135.04 40.24, 135.92 38.74, 137.06 37.22 M133.05 41.99 C134.74 40.07, 135.97 38.37, 137.34 37.1" stroke="#82c91e" stroke-width="0.5" fill="none"></path><path d="M-1.51 0.36 C48.54 -1.42, 95.88 -1.77, 137.94 -1.4 M-0.15 0.98 C35.47 -0.73, 69.95 0.22, 135.28 -0.45 M134.49 -1.49 C136.54 11.64, 134.82 22.07, 137.82 39.86 M136.64 0.5 C135.2 15.34, 137 30.17, 135.57 41.39 M136.89 39.22 C100.29 40.7, 61.87 41.69, -0.99 42.73 M136.37 41.07 C82.31 41.67, 29.51 41.8, -0.19 41.78 M-1.65 41.33 C-0.78 25.28, 0.11 11.61, -1.13 0.61 M0.17 41.63 C0.26 30.81, 1.19 20.25, 0.09 0.81" stroke="#000000" stroke-width="1" fill="none"></path></g><g transform="translate(467.63101197253906 306.3430303045548) rotate(0 63 12.5)"><text x="63" y="18" font-family="Virgil, Segoe UI Emoji" font-size="20px" fill="#000000" text-anchor="middle" style="white-space: pre;" direction="ltr">Output</text></g><g stroke-linecap="round" transform="translate(230.63101197253906 72.34303030455482) rotate(0 9 8)"><path d="M7.25 -0.07 C9.18 -0.4, 12.55 -0.19, 14.45 0.79 C16.35 1.76, 18.21 3.99, 18.66 5.76 C19.12 7.52, 18.26 9.92, 17.15 11.38 C16.05 12.84, 13.74 13.69, 12.04 14.53 C10.34 15.36, 8.66 16.63, 6.94 16.39 C5.21 16.14, 2.88 14.72, 1.7 13.07 C0.51 11.43, -0.41 8.44, -0.19 6.53 C0.02 4.62, 1.24 2.72, 3 1.62 C4.75 0.52, 8.5 -0.04, 10.36 -0.08 C12.21 -0.13, 14.22 1.3, 14.13 1.36 M8.66 -0.48 C10.95 -0.6, 15.26 1.37, 16.78 2.82 C18.3 4.26, 17.89 6.45, 17.79 8.2 C17.69 9.96, 17.34 12.08, 16.18 13.36 C15.03 14.63, 12.48 15.51, 10.86 15.85 C9.23 16.19, 8.02 16.19, 6.41 15.4 C4.8 14.62, 2.16 12.78, 1.21 11.14 C0.26 9.51, 0.46 7.38, 0.71 5.58 C0.96 3.78, 1.35 1.43, 2.71 0.34 C4.06 -0.75, 7.8 -1.03, 8.84 -0.97 C9.89 -0.9, 8.65 0.23, 9 0.72" stroke="none" stroke-width="0" fill="#ffffff"></path><path d="M8.19 0.14 C9.87 -0.3, 12.26 -0.01, 13.73 0.79 C15.2 1.58, 16.36 3.32, 16.99 4.89 C17.63 6.46, 18.1 8.54, 17.56 10.19 C17.01 11.84, 15.45 13.96, 13.72 14.79 C11.98 15.62, 9.15 15.5, 7.17 15.17 C5.18 14.83, 3.15 14.13, 1.82 12.8 C0.48 11.46, -1.01 8.81, -0.83 7.14 C-0.64 5.47, 1.1 3.78, 2.92 2.77 C4.74 1.75, 8.51 1.43, 10.09 1.06 C11.67 0.69, 12.35 0.48, 12.4 0.54 M13.38 0.82 C15.03 1.15, 15.96 1.6, 16.63 2.81 C17.29 4.02, 17.49 6.02, 17.39 8.07 C17.3 10.12, 17.71 13.68, 16.07 15.11 C14.44 16.53, 9.54 16.87, 7.59 16.61 C5.64 16.36, 5.6 14.81, 4.39 13.6 C3.19 12.39, 0.72 10.93, 0.35 9.35 C-0.02 7.76, 1.25 5.72, 2.18 4.07 C3.1 2.43, 4.29 -0.11, 5.91 -0.53 C7.53 -0.94, 10.67 1.3, 11.87 1.59 C13.08 1.89, 13.25 1.18, 13.15 1.25" stroke="#000000" stroke-width="1" fill="none"></path></g><g stroke-linecap="round" transform="translate(168.63101197253906 218.34303030455482) rotate(0 9 8)"><path d="M8.78 -0.67 C10.32 -0.64, 12.11 1.43, 13.68 2.56 C15.24 3.69, 17.55 4.67, 18.16 6.1 C18.78 7.54, 18.34 9.8, 17.36 11.18 C16.38 12.56, 14.11 13.63, 12.28 14.38 C10.45 15.13, 8.05 15.91, 6.39 15.68 C4.73 15.45, 3.51 14.44, 2.33 13.01 C1.15 11.58, -0.92 8.85, -0.68 7.11 C-0.45 5.38, 2.16 3.85, 3.74 2.59 C5.33 1.33, 7.56 -0.18, 8.84 -0.46 C10.12 -0.73, 11.32 0.85, 11.42 0.93 M5.87 0.75 C7.26 0.22, 9.68 0.23, 11.58 0.96 C13.47 1.69, 16.36 3.9, 17.25 5.12 C18.14 6.34, 17.27 6.61, 16.94 8.29 C16.62 9.96, 16.54 13.99, 15.31 15.17 C14.08 16.36, 11.78 15.58, 9.55 15.4 C7.31 15.21, 3.31 15.08, 1.91 14.09 C0.5 13.1, 1.22 11.14, 1.12 9.44 C1.02 7.74, 0.68 5.27, 1.31 3.88 C1.94 2.5, 4.13 1.47, 4.92 1.14 C5.7 0.81, 6.04 2.06, 6.03 1.91" stroke="none" stroke-width="0" fill="#ffffff"></path><path d="M7.49 -0.69 C9.35 -0.82, 12.75 0.94, 14.46 2.13 C16.17 3.32, 17.36 5.03, 17.77 6.45 C18.18 7.87, 17.68 9.29, 16.91 10.64 C16.13 11.99, 14.94 13.74, 13.12 14.54 C11.31 15.34, 7.82 15.75, 6.01 15.44 C4.2 15.13, 3.43 14.16, 2.28 12.68 C1.13 11.2, -0.97 8.44, -0.88 6.57 C-0.78 4.7, 0.9 2.65, 2.85 1.44 C4.79 0.22, 9.45 -0.71, 10.8 -0.72 C12.16 -0.73, 11.11 1.14, 10.99 1.38 M11.19 0.48 C13.2 0.76, 16.59 2.43, 17.78 3.81 C18.96 5.2, 18.67 7.14, 18.3 8.76 C17.92 10.38, 17.19 12.5, 15.53 13.52 C13.86 14.54, 10.46 14.91, 8.31 14.88 C6.16 14.86, 4.1 14.14, 2.62 13.38 C1.14 12.61, -0.48 11.62, -0.54 10.31 C-0.6 8.99, 1.28 6.91, 2.26 5.49 C3.23 4.07, 3.76 2.87, 5.33 1.8 C6.9 0.73, 10.53 -0.91, 11.69 -0.92 C12.84 -0.92, 12.35 1.49, 12.26 1.77" stroke="#000000" stroke-width="1" fill="none"></path></g><g stroke-linecap="round" transform="translate(362.63101197253906 263.3430303045548) rotate(0 9 8)"><path d="M12.97 -0.47 C14.81 0.13, 16.95 2.9, 17.72 4.42 C18.5 5.95, 18.18 7.19, 17.62 8.68 C17.05 10.17, 15.89 12.05, 14.32 13.38 C12.74 14.7, 10.17 16.47, 8.17 16.64 C6.17 16.8, 3.47 15.57, 2.3 14.38 C1.13 13.2, 1.2 11.38, 1.15 9.5 C1.1 7.62, 1.18 4.65, 1.98 3.13 C2.78 1.61, 4.1 0.61, 5.96 0.38 C7.82 0.14, 11.44 1.22, 13.15 1.7 C14.86 2.19, 16.06 3.2, 16.2 3.31 M6.69 -1.1 C8.34 -1.56, 10.77 0.26, 12.3 1.39 C13.83 2.52, 14.97 4.41, 15.88 5.69 C16.79 6.97, 18.28 7.51, 17.76 9.09 C17.24 10.68, 14.17 14.17, 12.76 15.22 C11.35 16.26, 11.22 15.71, 9.29 15.37 C7.36 15.03, 2.66 14.41, 1.15 13.18 C-0.35 11.96, 0.11 9.7, 0.26 8.02 C0.41 6.34, 0.93 4.52, 2.06 3.12 C3.2 1.73, 6.44 0.06, 7.06 -0.34 C7.68 -0.74, 5.75 0.39, 5.77 0.71" stroke="none" stroke-width="0" fill="#ffffff"></path><path d="M6.53 -0.04 C8.04 -0.77, 9.63 -0.2, 11.48 0.51 C13.33 1.22, 16.55 2.72, 17.62 4.23 C18.7 5.74, 18.54 7.8, 17.92 9.56 C17.31 11.31, 15.46 13.54, 13.93 14.75 C12.4 15.96, 10.72 17.06, 8.75 16.79 C6.79 16.53, 3.6 14.31, 2.11 13.15 C0.63 11.98, -0.21 11.41, -0.17 9.81 C-0.13 8.21, 1.04 5.12, 2.36 3.56 C3.69 2.01, 6.94 1.08, 7.76 0.48 C8.58 -0.13, 7.22 -0.06, 7.27 -0.05 M7.04 -1.27 C8.94 -1.14, 11.95 1.02, 13.75 2.42 C15.55 3.83, 17.08 5.73, 17.85 7.15 C18.61 8.57, 19.38 9.55, 18.33 10.95 C17.28 12.35, 13.4 14.59, 11.56 15.56 C9.71 16.54, 8.65 17.05, 7.24 16.8 C5.83 16.56, 4.37 15.43, 3.08 14.07 C1.78 12.72, -0.18 10.56, -0.52 8.68 C-0.86 6.8, -0.42 4.33, 1.05 2.82 C2.52 1.32, 7 0.01, 8.28 -0.37 C9.56 -0.75, 8.68 0.34, 8.73 0.55" stroke="#000000" stroke-width="1" fill="none"></path></g><g stroke-linecap="round" transform="translate(430.63101197253906 161.34303030455482) rotate(0 9 8)"><path d="M5.23 0.79 C6.89 0.02, 9.77 0.02, 11.59 0.35 C13.41 0.68, 15.08 1.32, 16.17 2.74 C17.27 4.16, 18.28 7.07, 18.18 8.89 C18.08 10.7, 17.07 12.51, 15.57 13.62 C14.08 14.73, 11.3 15.51, 9.2 15.54 C7.1 15.58, 4.44 14.85, 2.96 13.83 C1.47 12.8, 0.5 10.99, 0.31 9.4 C0.12 7.82, 0.65 5.7, 1.81 4.33 C2.97 2.96, 6.37 1.7, 7.26 1.16 C8.16 0.63, 7.35 1.25, 7.18 1.14 M11.19 0.96 C12.99 1.5, 16.56 3.28, 17.73 4.48 C18.89 5.67, 18.74 6.46, 18.2 8.15 C17.66 9.84, 16.24 13.24, 14.5 14.63 C12.76 16.01, 9.64 16.42, 7.77 16.44 C5.9 16.46, 4.36 16, 3.27 14.73 C2.19 13.46, 1.61 10.53, 1.28 8.84 C0.95 7.15, 0.59 6.16, 1.31 4.58 C2.03 3, 3.67 -0.15, 5.57 -0.62 C7.48 -1.09, 11.63 1.42, 12.74 1.77 C13.85 2.11, 12.35 1.5, 12.23 1.45" stroke="none" stroke-width="0" fill="#ffffff"></path><path d="M13.76 -0.18 C15.35 0.53, 16.87 3.08, 17.47 4.89 C18.08 6.69, 17.91 8.96, 17.38 10.63 C16.84 12.3, 15.82 13.89, 14.27 14.91 C12.72 15.94, 9.98 16.91, 8.1 16.8 C6.21 16.68, 4.21 15.69, 2.94 14.24 C1.68 12.79, 0.56 10.09, 0.51 8.11 C0.47 6.13, 1.48 3.61, 2.7 2.38 C3.91 1.15, 5.83 0.93, 7.79 0.74 C9.75 0.55, 13.18 0.9, 14.46 1.21 C15.75 1.52, 15.72 2.29, 15.51 2.6 M4.75 2.2 C6.02 1.12, 7.54 0.42, 9.39 0.36 C11.23 0.3, 14.31 0.34, 15.85 1.83 C17.38 3.31, 18.44 7.23, 18.57 9.28 C18.71 11.33, 17.95 13.13, 16.66 14.13 C15.37 15.12, 12.94 15.05, 10.85 15.26 C8.76 15.47, 5.92 16.38, 4.13 15.38 C2.34 14.38, 0.83 10.88, 0.1 9.24 C-0.62 7.6, -0.75 6.8, -0.22 5.55 C0.31 4.29, 2.41 2.68, 3.28 1.72 C4.15 0.76, 4.85 -0.27, 4.98 -0.2" stroke="#000000" stroke-width="1" fill="none"></path></g><g stroke-linecap="round" transform="translate(298.63101197253906 117.34303030455482) rotate(0 9 8)"><path d="M5.89 1.12 C7.5 0.31, 10.3 -0.02, 12.08 0.58 C13.85 1.18, 15.56 3.44, 16.53 4.71 C17.5 5.98, 18.17 6.53, 17.9 8.2 C17.64 9.88, 16.51 13.45, 14.93 14.73 C13.34 16.01, 10.34 15.84, 8.37 15.88 C6.41 15.92, 4.42 16.07, 3.15 14.98 C1.88 13.89, 1.16 11.07, 0.75 9.35 C0.35 7.63, -0.28 6.33, 0.72 4.68 C1.73 3.03, 5.55 0.24, 6.81 -0.53 C8.07 -1.29, 8.16 -0.11, 8.29 0.09 M4.99 1.16 C6.5 0.47, 8.85 0.46, 10.54 1.02 C12.23 1.57, 13.72 3.31, 15.12 4.5 C16.51 5.68, 18.71 6.78, 18.92 8.14 C19.12 9.51, 17.91 11.58, 16.34 12.69 C14.76 13.79, 11.49 14.37, 9.46 14.79 C7.44 15.21, 5.57 16.04, 4.16 15.21 C2.75 14.39, 1.75 11.46, 0.98 9.84 C0.22 8.22, -1.1 7.05, -0.4 5.48 C0.29 3.91, 4.41 1.36, 5.16 0.42 C5.9 -0.52, 3.81 -0.23, 4.07 -0.17" stroke="none" stroke-width="0" fill="#ffffff"></path><path d="M10.58 -0.77 C12.45 -0.63, 13.71 1.72, 15.11 3.1 C16.51 4.49, 18.97 5.9, 18.97 7.54 C18.98 9.17, 16.5 11.57, 15.15 12.92 C13.79 14.27, 12.57 15.3, 10.83 15.64 C9.09 15.98, 6.43 15.83, 4.72 14.96 C3.02 14.1, 1.44 12.03, 0.59 10.47 C-0.26 8.9, -1 7.08, -0.37 5.59 C0.26 4.1, 2.5 2.47, 4.36 1.52 C6.22 0.58, 9.68 0.18, 10.79 -0.11 C11.9 -0.39, 11.13 -0.37, 11.03 -0.18 M8.12 1.48 C9.53 1.28, 10.92 1.83, 12.32 2.27 C13.73 2.72, 15.51 2.65, 16.55 4.15 C17.59 5.64, 19.05 9.59, 18.59 11.23 C18.13 12.87, 15.5 13.02, 13.79 13.97 C12.07 14.91, 10.11 16.95, 8.29 16.9 C6.47 16.86, 4.46 15.19, 2.88 13.7 C1.31 12.21, -1.08 9.95, -1.15 7.96 C-1.23 5.97, 0.99 3.07, 2.44 1.78 C3.88 0.48, 6.66 0.22, 7.53 0.17 C8.4 0.12, 7.83 1.31, 7.68 1.46" stroke="#000000" stroke-width="1" fill="none"></path></g><g stroke-linecap="round"><g transform="translate(177.23431168422923 233.95790531863554) rotate(0 0.4506203817978758 64.94728219316966)"><path d="M0.77 -0.55 C0.97 21.06, 0.37 108.63, 0.09 130.45" stroke="#000000" stroke-width="1.5" fill="none" stroke-dasharray="8 9"></path></g><g transform="translate(177.23431168422923 233.95790531863554) rotate(0 0.4506203817978758 64.94728219316966)"><path d="M-10.83 103.61 C-9.04 107.83, -7.1 114.6, 1.08 131.4" stroke="#000000" stroke-width="1.5" fill="none"></path></g><g transform="translate(177.23431168422923 233.95790531863554) rotate(0 0.4506203817978758 64.94728219316966)"><path d="M9.69 103.79 C7.16 108.11, 4.78 114.84, 1.08 131.4" stroke="#000000" stroke-width="1.5" fill="none"></path></g></g><g stroke-linecap="round"><g transform="translate(11.815505986269557 373.3430303045548) rotate(0 281.9095228591934 -0.16559891816476124)"><path d="M-0.23 -0.13 C93.99 0.04, 471.31 0.9, 565.63 0.96 M-1.82 -1.25 C92.29 -1.39, 470.57 -1.14, 565.12 -0.66" stroke="#000000" stroke-width="1" fill="none"></path></g><g transform="translate(11.815505986269557 373.3430303045548) rotate(0 281.9095228591934 -0.16559891816476124)"><path d="M536.68 10.89 C547.68 7.78, 555.61 1.27, 565.66 -0.55 M537.79 10.1 C548.09 6.36, 558.51 1.92, 566.07 -1.05" stroke="#000000" stroke-width="1" fill="none"></path></g><g transform="translate(11.815505986269557 373.3430303045548) rotate(0 281.9095228591934 -0.16559891816476124)"><path d="M536.73 -9.63 C547.7 -6.06, 555.61 -5.9, 565.66 -0.55 M537.84 -10.42 C548.01 -6.34, 558.41 -2.96, 566.07 -1.05" stroke="#000000" stroke-width="1" fill="none"></path></g></g><g stroke-linecap="round"><g transform="translate(241.63101197253906 87.34303030455482) rotate(0 -0.5414404470473642 138.62818057723345)"><path d="M-0.71 0.89 C-0.6 46.94, -0.62 230.26, -0.38 276.36" stroke="#000000" stroke-width="1.5" fill="none" stroke-dasharray="8 9"></path></g><g transform="translate(241.63101197253906 87.34303030455482) rotate(0 -0.5414404470473642 138.62818057723345)"><path d="M-9.21 247.57 C-9.53 255.58, -5.37 261.87, 1.33 274.53" stroke="#000000" stroke-width="1.5" fill="none"></path></g><g transform="translate(241.63101197253906 87.34303030455482) rotate(0 -0.5414404470473642 138.62818057723345)"><path d="M11.31 247.52 C6.61 255.43, 6.39 261.72, 1.33 274.53" stroke="#000000" stroke-width="1.5" fill="none"></path></g></g><g stroke-linecap="round"><g transform="translate(307.66051496232006 139.2210675068224) rotate(0 -0.32264947502659425 112.43775751032916)"><path d="M-0.8 0.15 C-0.7 37.73, -0.23 187.4, 0.15 224.72" stroke="#000000" stroke-width="1.5" fill="none" stroke-dasharray="8 9"></path></g><g transform="translate(307.66051496232006 139.2210675068224) rotate(0 -0.32264947502659425 112.43775751032916)"><path d="M-10.03 195.88 C-7.17 205.56, -5.51 211.75, 0.39 225.6" stroke="#000000" stroke-width="1.5" fill="none"></path></g><g transform="translate(307.66051496232006 139.2210675068224) rotate(0 -0.32264947502659425 112.43775751032916)"><path d="M10.5 195.76 C7.95 205.33, 4.21 211.56, 0.39 225.6" stroke="#000000" stroke-width="1.5" fill="none"></path></g></g><g stroke-linecap="round"><g transform="translate(373.63101197253906 280.3430303045548) rotate(0 0.0996853273362035 43.91043584533034)"><path d="M0.85 -0.73 C0.56 14.05, -0.7 73.95, -0.65 88.55" stroke="#000000" stroke-width="1.5" fill="none" stroke-dasharray="8 9"></path></g><g transform="translate(373.63101197253906 280.3430303045548) rotate(0 0.0996853273362035 43.91043584533034)"><path d="M-11.82 59.16 C-5.82 73.18, -4.72 80.47, -0.9 89.3" stroke="#000000" stroke-width="1.5" fill="none"></path></g><g transform="translate(373.63101197253906 280.3430303045548) rotate(0 0.0996853273362035 43.91043584533034)"><path d="M8.7 59.38 C6.67 73.46, -0.27 80.67, -0.9 89.3" stroke="#000000" stroke-width="1.5" fill="none"></path></g></g><g stroke-linecap="round"><g transform="translate(442.4777637440338 178.06917947800827) rotate(0 -1.5307241806760317 93.2773809114471)"><path d="M-0.06 0.23 C-0.38 31.33, -2.69 155.37, -3 186.33" stroke="#000000" stroke-width="1.5" fill="none" stroke-dasharray="8 9"></path></g><g transform="translate(442.4777637440338 178.06917947800827) rotate(0 -1.5307241806760317 93.2773809114471)"><path d="M-12.46 156.07 C-11.62 163.7, -10.18 168.36, -3.65 187.92" stroke="#000000" stroke-width="1.5" fill="none"></path></g><g transform="translate(442.4777637440338 178.06917947800827) rotate(0 -1.5307241806760317 93.2773809114471)"><path d="M8.06 156.37 C4.66 163.94, 1.85 168.53, -3.65 187.92" stroke="#000000" stroke-width="1.5" fill="none"></path></g></g><g stroke-linecap="round" transform="translate(172.63101197253906 367.4188436185654) rotate(0 5.5 5)"><path d="M6.19 0.29 C7.41 0.3, 8.76 0.55, 9.7 1.19 C10.65 1.83, 11.62 3.15, 11.86 4.12 C12.1 5.1, 12.04 6.14, 11.14 7.04 C10.23 7.95, 7.84 9, 6.42 9.55 C4.99 10.1, 3.54 10.7, 2.57 10.34 C1.6 9.98, 0.93 8.34, 0.6 7.38 C0.26 6.41, 0.37 5.63, 0.58 4.58 C0.79 3.52, 0.71 1.96, 1.85 1.04 C2.99 0.13, 6.48 -0.74, 7.4 -0.91 C8.32 -1.07, 7.48 -0.19, 7.37 0.05 M4.66 0.45 C5.49 -0.01, 6.83 0.82, 7.8 1.09 C8.76 1.36, 10.18 1.34, 10.45 2.07 C10.71 2.8, 9.44 4.39, 9.4 5.48 C9.36 6.57, 10.8 7.79, 10.22 8.6 C9.64 9.42, 7.36 10.62, 5.93 10.37 C4.49 10.13, 2.39 8.11, 1.61 7.13 C0.82 6.16, 1.16 5.16, 1.21 4.54 C1.25 3.92, 1.21 4.37, 1.86 3.41 C2.51 2.45, 4.5 -0.85, 5.09 -1.23 C5.67 -1.62, 5.78 0.71, 5.37 1.12" stroke="none" stroke-width="0" fill="#fa5252"></path><path d="M6.66 -0.4 C7.79 -0.25, 9.54 0.45, 10.34 1.54 C11.15 2.63, 11.75 4.91, 11.5 6.14 C11.24 7.36, 9.81 8.4, 8.8 8.89 C7.79 9.39, 6.49 9.05, 5.45 9.12 C4.41 9.19, 3.61 9.98, 2.56 9.33 C1.51 8.68, -0.62 6.41, -0.84 5.22 C-1.06 4.04, 0.42 3, 1.22 2.2 C2.02 1.4, 2.79 0.63, 3.96 0.42 C5.13 0.21, 7.64 0.93, 8.22 0.95 C8.81 0.97, 7.5 0.48, 7.46 0.55 M2.7 0.37 C3.6 -0.15, 5.83 -1.38, 7.12 -0.98 C8.41 -0.58, 9.56 1.92, 10.44 2.77 C11.32 3.63, 12.6 3.12, 12.39 4.15 C12.18 5.17, 10.36 8.02, 9.18 8.92 C8.01 9.81, 6.47 9.68, 5.33 9.5 C4.19 9.32, 3.14 8.37, 2.36 7.84 C1.58 7.31, 1.09 7.17, 0.66 6.35 C0.22 5.52, -0.71 3.64, -0.25 2.91 C0.2 2.18, 3.01 2.39, 3.39 1.95 C3.77 1.5, 2.12 0.41, 2.03 0.23" stroke="#000000" stroke-width="1" fill="none"></path></g><g stroke-linecap="round" transform="translate(236.83596237393948 365.7769764630918) rotate(0 5.5 5)"><path d="M5.56 -0.78 C6.62 -0.75, 7.05 0.78, 7.88 1.54 C8.71 2.29, 10.23 2.67, 10.53 3.77 C10.83 4.86, 10.21 7.15, 9.68 8.1 C9.15 9.05, 8.28 9.3, 7.36 9.48 C6.44 9.65, 5.33 9.57, 4.16 9.14 C2.99 8.71, 1.08 7.76, 0.33 6.92 C-0.41 6.07, -0.36 5.12, -0.31 4.08 C-0.25 3.03, -0.27 1.42, 0.68 0.67 C1.64 -0.08, 4.46 -0.46, 5.42 -0.42 C6.38 -0.37, 6.49 0.69, 6.45 0.94 M2.84 0.06 C4.11 -0.48, 7.49 -0.71, 8.48 -0.21 C9.47 0.29, 8.33 1.85, 8.8 3.06 C9.27 4.26, 11.38 6.21, 11.3 7.02 C11.22 7.83, 9.06 7.61, 8.31 7.93 C7.56 8.24, 7.82 8.86, 6.8 8.93 C5.77 9, 3.11 8.66, 2.18 8.34 C1.26 8.01, 1.36 8.1, 1.26 6.96 C1.15 5.82, 1.32 2.67, 1.54 1.49 C1.75 0.32, 2.24 0.23, 2.53 -0.08 C2.82 -0.39, 3.25 -0.43, 3.27 -0.37" stroke="none" stroke-width="0" fill="#fa5252"></path><path d="M4.52 0.3 C5.61 -0.02, 7.21 0.22, 8.12 0.78 C9.03 1.35, 9.39 2.6, 9.97 3.7 C10.54 4.81, 11.87 6.52, 11.59 7.42 C11.3 8.32, 9.57 8.62, 8.26 9.11 C6.94 9.6, 4.86 10.63, 3.68 10.34 C2.5 10.04, 1.87 8.41, 1.18 7.34 C0.49 6.27, -0.61 5.01, -0.45 3.94 C-0.29 2.87, 1.02 1.57, 2.13 0.92 C3.24 0.27, 5.5 0.06, 6.23 0.03 C6.96 0.01, 6.56 0.75, 6.52 0.77 M5.72 0.37 C6.78 0.46, 6.44 0.72, 7.5 1.2 C8.56 1.68, 11.34 2.47, 12.07 3.26 C12.79 4.05, 12.46 4.69, 11.84 5.96 C11.23 7.23, 9.85 10.44, 8.37 10.86 C6.9 11.28, 4.31 8.89, 2.98 8.5 C1.65 8.11, 1.12 9.12, 0.38 8.52 C-0.36 7.92, -1.59 5.97, -1.46 4.89 C-1.32 3.81, 0.08 2.81, 1.18 2.04 C2.28 1.28, 4.63 0.62, 5.12 0.3 C5.61 -0.02, 4.2 0.2, 4.14 0.14" stroke="#000000" stroke-width="1" fill="none"></path></g><g stroke-linecap="round" transform="translate(303.2320018754712 367.6740061631355) rotate(0 5.5 5)"><path d="M6.9 0.98 C8.31 1.19, 10.15 0.69, 10.96 1.41 C11.78 2.13, 12.14 4, 11.79 5.28 C11.44 6.56, 9.86 8.46, 8.85 9.09 C7.83 9.72, 6.76 9, 5.69 9.06 C4.62 9.12, 3.26 10.02, 2.43 9.46 C1.6 8.89, 1.16 6.63, 0.71 5.67 C0.27 4.7, -0.73 4.59, -0.25 3.68 C0.24 2.76, 2.49 0.85, 3.63 0.19 C4.78 -0.46, 6.03 -0.32, 6.6 -0.26 C7.17 -0.19, 6.99 0.36, 7.04 0.58 M6.21 1.39 C7.22 1.6, 9.26 2.09, 10.3 2.65 C11.34 3.21, 12.47 3.73, 12.43 4.74 C12.4 5.76, 11.36 7.68, 10.09 8.75 C8.82 9.82, 6.02 11.16, 4.82 11.17 C3.63 11.17, 3.85 9.88, 2.92 8.78 C1.99 7.67, -0.52 5.58, -0.76 4.56 C-0.99 3.54, 0.98 3.18, 1.52 2.65 C2.06 2.12, 1.39 1.88, 2.48 1.38 C3.57 0.89, 7.21 -0.13, 8.06 -0.32 C8.91 -0.5, 7.64 0.07, 7.59 0.26" stroke="none" stroke-width="0" fill="#fa5252"></path><path d="M3.33 -0.64 C4.58 -1.09, 7.29 -0.26, 8.49 0.2 C9.7 0.67, 10 1.19, 10.55 2.13 C11.09 3.08, 12.1 4.71, 11.77 5.9 C11.43 7.08, 9.79 8.66, 8.55 9.23 C7.3 9.8, 5.6 9.5, 4.28 9.33 C2.97 9.15, 1.43 8.99, 0.64 8.17 C-0.15 7.36, -0.39 5.49, -0.45 4.44 C-0.52 3.4, -0.57 2.59, 0.25 1.9 C1.06 1.21, 3.41 0.67, 4.44 0.3 C5.46 -0.08, 6.22 -0.27, 6.39 -0.36 M4.66 1.34 C5.68 1.06, 7.03 -0.9, 8.18 -0.46 C9.32 -0.01, 10.93 2.92, 11.54 4.02 C12.16 5.13, 12.6 5.09, 11.86 6.18 C11.12 7.27, 8.56 9.96, 7.09 10.58 C5.62 11.19, 4.16 10.13, 3.05 9.87 C1.93 9.61, 0.75 9.75, 0.39 9.02 C0.03 8.29, 0.9 6.91, 0.9 5.51 C0.9 4.11, -0.21 1.56, 0.39 0.62 C1 -0.33, 3.9 0.09, 4.53 -0.15 C5.15 -0.38, 4.16 -1.1, 4.15 -0.81" stroke="#000000" stroke-width="1" fill="none"></path></g><g stroke-linecap="round" transform="translate(368.2730201626858 370.11304434890616) rotate(0 5.5 5)"><path d="M6.54 -0.51 C7.43 -0.34, 8.72 1.38, 9.4 2.6 C10.07 3.82, 10.65 5.74, 10.6 6.79 C10.55 7.84, 9.94 8.41, 9.11 8.9 C8.27 9.39, 6.83 9.8, 5.59 9.74 C4.35 9.67, 2.62 9.16, 1.68 8.51 C0.73 7.86, 0.08 6.71, -0.08 5.84 C-0.24 4.96, -0.07 4.34, 0.73 3.27 C1.52 2.19, 3.7 -0.22, 4.71 -0.61 C5.71 -1, 6.21 0.71, 6.74 0.94 C7.27 1.17, 7.86 0.69, 7.88 0.75 M7.5 1.79 C8.7 2.37, 10.2 3.38, 10.56 3.98 C10.93 4.57, 10.13 4.61, 9.7 5.37 C9.26 6.12, 8.74 7.81, 7.94 8.5 C7.14 9.2, 6.14 9.71, 4.88 9.52 C3.62 9.33, 1.29 8.1, 0.4 7.35 C-0.49 6.59, -0.55 5.74, -0.46 5.01 C-0.36 4.28, 0.02 3.88, 0.96 2.95 C1.89 2.02, 4.17 -0.3, 5.14 -0.56 C6.12 -0.81, 6.45 1.51, 6.81 1.43 C7.18 1.34, 7.4 -0.89, 7.35 -1.05" stroke="none" stroke-width="0" fill="#fa5252"></path><path d="M4.96 0.86 C5.81 0.56, 6.41 -0.55, 7.25 -0.09 C8.08 0.37, 9.38 2.4, 9.96 3.62 C10.53 4.84, 10.93 6.25, 10.72 7.21 C10.5 8.16, 9.76 8.76, 8.67 9.37 C7.59 9.97, 5.46 11.1, 4.2 10.81 C2.95 10.52, 1.9 8.56, 1.14 7.64 C0.39 6.71, -0.19 6.06, -0.32 5.24 C-0.46 4.43, -0.38 3.62, 0.34 2.76 C1.05 1.9, 3.12 0.58, 3.97 0.06 C4.81 -0.46, 5.25 -0.56, 5.39 -0.34 M8.13 1.46 C9.37 1.81, 9.75 3.52, 10.45 4.18 C11.15 4.85, 12.86 4.89, 12.33 5.45 C11.8 6.02, 8.25 6.93, 7.29 7.55 C6.33 8.16, 7.65 8.98, 6.58 9.15 C5.52 9.33, 1.79 9.27, 0.9 8.59 C0.02 7.91, 1.35 6.34, 1.28 5.09 C1.21 3.85, -0.19 2.01, 0.49 1.1 C1.17 0.2, 4.08 -0.2, 5.36 -0.33 C6.63 -0.47, 7.68 0.18, 8.12 0.29 C8.55 0.4, 7.89 0.27, 7.96 0.31" stroke="#000000" stroke-width="1" fill="none"></path></g><g stroke-linecap="round" transform="translate(433.043034207037 368.21601464886237) rotate(0 5.5 5)"><path d="M7.14 -0.8 C8.43 -0.7, 9.41 1.6, 9.95 2.46 C10.5 3.33, 10.39 3.5, 10.4 4.39 C10.41 5.29, 10.76 6.77, 9.99 7.83 C9.23 8.89, 6.97 10.6, 5.8 10.73 C4.63 10.86, 3.96 9.12, 2.96 8.58 C1.95 8.05, 0.31 8.29, -0.25 7.52 C-0.81 6.74, -0.82 5.08, -0.41 3.93 C0 2.77, 0.92 1.27, 2.23 0.59 C3.53 -0.08, 6.59 0, 7.41 -0.12 C8.23 -0.25, 7.32 -0.31, 7.14 -0.16 M5.56 -0.41 C6.63 -0.36, 9.01 1.23, 9.73 2.1 C10.46 2.97, 9.89 4.07, 9.93 4.82 C9.97 5.58, 10.28 5.82, 9.98 6.61 C9.68 7.39, 9.13 9.16, 8.13 9.54 C7.12 9.92, 5.25 9.1, 3.94 8.87 C2.63 8.64, 0.85 8.72, 0.28 8.15 C-0.3 7.57, 0.3 6.54, 0.5 5.41 C0.7 4.27, 0.48 2.29, 1.48 1.34 C2.48 0.39, 5.61 0.05, 6.48 -0.28 C7.35 -0.61, 7.05 -0.67, 6.68 -0.66" stroke="none" stroke-width="0" fill="#fa5252"></path><path d="M6.52 -0.61 C7.5 -0.27, 8.56 1.21, 9.25 2.21 C9.95 3.2, 10.6 4.45, 10.71 5.37 C10.82 6.29, 10.77 7.09, 9.91 7.74 C9.06 8.39, 6.81 9, 5.59 9.27 C4.37 9.55, 3.36 9.93, 2.58 9.39 C1.79 8.86, 1.36 7.08, 0.87 6.08 C0.37 5.08, -0.64 4.14, -0.39 3.37 C-0.14 2.61, 1.26 2.07, 2.4 1.5 C3.53 0.93, 5.72 0.27, 6.45 -0.06 C7.18 -0.39, 6.58 -0.56, 6.75 -0.48 M8.95 0.96 C9.72 1.56, 9.92 3.23, 10.34 4.14 C10.77 5.05, 11.79 5.75, 11.51 6.41 C11.24 7.07, 9.9 7.42, 8.71 8.08 C7.53 8.75, 5.55 10.36, 4.38 10.4 C3.21 10.43, 2.37 9.15, 1.72 8.3 C1.08 7.44, 0.73 6.29, 0.5 5.27 C0.28 4.26, -0.06 3.2, 0.39 2.22 C0.83 1.23, 1.88 -0.23, 3.16 -0.61 C4.45 -1, 7.54 -0.31, 8.09 -0.12 C8.64 0.07, 6.36 0.57, 6.46 0.51" stroke="#000000" stroke-width="1" fill="none"></path></g><g transform="translate(171.3328507437306 384.8123371064806) rotate(0 8 12.5)"><text x="0" y="18" font-family="Virgil, Segoe UI Emoji" font-size="20px" fill="#000000" text-anchor="start" style="white-space: pre;" direction="ltr">B</text></g><g transform="translate(234.74784357376512 385.89635407793475) rotate(0 7 12.5)"><text x="0" y="18" font-family="Virgil, Segoe UI Emoji" font-size="20px" fill="#000000" text-anchor="start" style="white-space: pre;" direction="ltr">A</text></g><g transform="translate(301.9568958038869 385.89635407793463) rotate(0 7 12.5)"><text x="0" y="18" font-family="Virgil, Segoe UI Emoji" font-size="20px" fill="#000000" text-anchor="start" style="white-space: pre;" direction="ltr">C</text></g><g transform="translate(430.6839111639993 386.7093668065249) rotate(0 8.5 12.5)"><text x="0" y="18" font-family="Virgil, Segoe UI Emoji" font-size="20px" fill="#000000" text-anchor="start" style="white-space: pre;" direction="ltr">D</text></g><g transform="translate(367.81092681969125 388.06438802084205) rotate(0 7 12.5)"><text x="0" y="18" font-family="Virgil, Segoe UI Emoji" font-size="20px" fill="#000000" text-anchor="start" style="white-space: pre;" direction="ltr">E</text></g></svg>